<svg xmlns="http://www.w3.org/2000/svg" viewBox="0 0 144 144"><defs><style>.a{fill:#000000;}</style></defs><title>lettermark_nobg_new</title><path class="a" d="M50.875,3.07v8.641Q60.671,0,76.992,0q19.2,0,31.1,15.07A54.367,54.367,0,0,1,120,49.727q0,20.542-11.813,35.617t-31.773,15.07a34.218,34.218,0,0,1-14.4-3.164,25.69,25.69,0,0,1-10.75-8.734h-.391V144H24V3.07ZM54.43,68.445q6.234,8.169,16.031,8.164t16.031-8.164a29.388,29.388,0,0,0,6.242-18.336,29,29,0,0,0-6.242-18.234,19.958,19.958,0,0,0-32.062,0,29,29,0,0,0-6.243,18.234A29.389,29.389,0,0,0,54.43,68.445Z"/></svg>
